# xmcd CD database file
#
# Track frame offsets:
#	150
#	18489
#	31574
#	50216
#	62520
#	82106
#	98271
#	108512
#	124134
#	145445
#	156622
#	171795
#	203005
#
# Disc length: 3111 seconds
#
# Revision: 0
# Processed by: cddbd v1.5.2PL0 Copyright (c) Steve Scherf et al.
# Submitted via: CDex 1.51
#
DISCID=ae0c250d
DTITLE=Lunch At Allen's - (2006) Catch The Moon
DYEAR=2006
DGENRE=Country
TTITLE0=Walkin'
TTITLE1=What Kind Of Love
TTITLE2=Catch The Moon
TTITLE3=Looks Like Love
TTITLE4=You've Got To Know
TTITLE5=Get Ready For Love
TTITLE6=Runnin' On Faith
TTITLE7=That's How I see My Life
TTITLE8=This
TTITLE9=Better Things To Do Than Miss You
TTITLE10=Farmer's Song
TTITLE11=Grateful
TTITLE12=Data
EXTD=YEAR: 2006
EXTT0=
EXTT1=
EXTT2=
EXTT3=
EXTT4=
EXTT5=
EXTT6=
EXTT7=
EXTT8=
EXTT9=
EXTT10=
EXTT11=
EXTT12=
PLAYORDER=
